<?xml version="1.0" encoding="UTF-8" standalone="no"?>
<!-- Created with Inkscape (http://www.inkscape.org/) -->

<svg
   xmlns:dc="http://purl.org/dc/elements/1.1/"
   xmlns:cc="http://creativecommons.org/ns#"
   xmlns:rdf="http://www.w3.org/1999/02/22-rdf-syntax-ns#"
   xmlns:svg="http://www.w3.org/2000/svg"
   xmlns="http://www.w3.org/2000/svg"
   xmlns:sodipodi="http://sodipodi.sourceforge.net/DTD/sodipodi-0.dtd"
   xmlns:inkscape="http://www.inkscape.org/namespaces/inkscape"
   version="1.1"
   id="svg2"
   xml:space="preserve"
   width="80"
   height="80"
   viewBox="0 0 80 80"
   sodipodi:docname="burger-logo.svg"
   inkscape:version="0.92.1 r15371"><metadata
     id="metadata8"><rdf:RDF><cc:Work
         rdf:about=""><dc:format>image/svg+xml</dc:format><dc:type
           rdf:resource="http://purl.org/dc/dcmitype/StillImage" /><dc:title></dc:title></cc:Work></rdf:RDF></metadata><defs
     id="defs6"><clipPath
       clipPathUnits="userSpaceOnUse"
       id="clipPath22"><path
         d="M 0,60 H 60 V 0 H 0 Z"
         id="path20"
         inkscape:connector-curvature="0" /></clipPath></defs><sodipodi:namedview
     pagecolor="#ffffff"
     bordercolor="#666666"
     borderopacity="1"
     objecttolerance="10"
     gridtolerance="10"
     guidetolerance="10"
     inkscape:pageopacity="0"
     inkscape:pageshadow="2"
     inkscape:window-width="640"
     inkscape:window-height="480"
     id="namedview4"
     showgrid="false"
     inkscape:zoom="2.95"
     inkscape:cx="40"
     inkscape:cy="40.472891"
     inkscape:window-x="0"
     inkscape:window-y="0"
     inkscape:window-maximized="0"
     inkscape:current-layer="g10" /><g
     id="g10"
     inkscape:groupmode="layer"
     inkscape:label="Vector Smart Object"
     transform="matrix(1.3333333,0,0,-1.3333333,0,80)"><g
       id="g12"
       transform="translate(30,19)"><path
         d="m 0,0 15,-8 8,8"
         style="fill:none;stroke:#f57365;stroke-width:2;stroke-linecap:round;stroke-linejoin:round;stroke-miterlimit:10;stroke-dasharray:none;stroke-opacity:1"
         id="path14"
         inkscape:connector-curvature="0" /></g><g
       id="g16"><g
         id="g18"
         clip-path="url(#clipPath22)"><g
           id="g24"
           transform="translate(59,14)"><path
             d="m 0,0 c 0,-2.785 -2.213,-5 -5,-5 h -48 c -2.783,0 -5,2.215 -5,5 0,2.787 2.217,5 5,5 H -5 C -2.213,5 0,2.787 0,0 Z"
             style="fill:none;stroke:#f57365;stroke-width:2;stroke-linecap:round;stroke-linejoin:round;stroke-miterlimit:10;stroke-dasharray:none;stroke-opacity:1"
             id="path26"
             inkscape:connector-curvature="0" /></g><g
           id="g28"
           transform="translate(6,9)"><path
             d="m 0,0 v -3 c 0,-2.785 2.217,-5 5,-5 h 38 c 2.787,0 5,2.215 5,5 v 3 z"
             style="fill:none;stroke:#f57365;stroke-width:2;stroke-linecap:round;stroke-linejoin:round;stroke-miterlimit:10;stroke-dasharray:none;stroke-opacity:1"
             id="path30"
             inkscape:connector-curvature="0" /></g><g
           id="g32"
           transform="translate(54,37)"><path
             d="M 0,0 C 0,13.232 -10.77,22 -24,22 -37.23,22 -48,13.232 -48,0 Z"
             style="fill:none;stroke:#f57365;stroke-width:2;stroke-linecap:round;stroke-linejoin:round;stroke-miterlimit:10;stroke-dasharray:none;stroke-opacity:1"
             id="path34"
             inkscape:connector-curvature="0" /></g><g
           id="g36"
           transform="translate(6,37)"><path
             d="m 0,0 c 0,0 -5,-3 -5,-5 0,-2.785 2.217,-3 5,-3 1.344,0 3.098,0.143 4,1 1.289,-2.33 3.146,-4 6,-4 3.104,0 5.832,2.326 7,5 1.164,-2.674 3.895,-4 7,-4 3.104,0 5.832,1.326 7,4 1.164,-2.674 3.895,-5 7,-5 2.852,0 5.711,1.67 7,4 0.904,-0.857 2.656,-1 4,-1 2.787,0 4,0.215 4,3 0,2 -5,5 -5,5"
             style="fill:none;stroke:#f57365;stroke-width:2;stroke-linecap:round;stroke-linejoin:round;stroke-miterlimit:10;stroke-dasharray:none;stroke-opacity:1"
             id="path38"
             inkscape:connector-curvature="0" /></g><g
           id="g40"
           transform="translate(6,29)"><path
             d="m 0,0 c -2.783,0 -5,-2.213 -5,-5 0,-2.785 2.217,-5 5,-5 h 48 c 2.787,0 5,2.215 5,5 0,2.787 -2.213,5 -5,5"
             style="fill:none;stroke:#f57365;stroke-width:2;stroke-linecap:round;stroke-linejoin:round;stroke-miterlimit:10;stroke-dasharray:none;stroke-opacity:1"
             id="path42"
             inkscape:connector-curvature="0" /></g><g
           id="g44"
           transform="translate(17,50.002)"><path
             d="m 0,0 c -0.553,0 -1.001,-0.447 -1.001,-1 0,-0.553 0.448,-1.002 1.001,-1.002 0.553,0 1.001,0.449 1.001,1.002 0,0.553 -0.448,1 -1.001,1"
             style="fill:#f57365;fill-opacity:1;fill-rule:nonzero;stroke:none"
             id="path46"
             inkscape:connector-curvature="0" /></g><g
           id="g48"
           transform="translate(31.001,50.002)"><path
             d="m 0,0 c -0.554,0 -1.001,-0.447 -1.001,-1 0,-0.553 0.447,-1.002 1.001,-1.002 0.553,0 1.001,0.449 1.001,1.002 0,0.553 -0.448,1 -1.001,1"
             style="fill:#f57365;fill-opacity:1;fill-rule:nonzero;stroke:none"
             id="path50"
             inkscape:connector-curvature="0" /></g><g
           id="g52"
           transform="translate(43,50.002)"><path
             d="m 0,0 c -0.553,0 -1.001,-0.447 -1.001,-1 0,-0.553 0.448,-1.002 1.001,-1.002 0.553,0 1.001,0.449 1.001,1.002 0,0.553 -0.448,1 -1.001,1"
             style="fill:#f57365;fill-opacity:1;fill-rule:nonzero;stroke:none"
             id="path54"
             inkscape:connector-curvature="0" /></g><g
           id="g56"
           transform="translate(22.999,54.002)"><path
             d="m 0,0 c -0.553,0 -1.001,-0.447 -1.001,-1 0,-0.553 0.448,-1.002 1.001,-1.002 0.553,0 1.001,0.449 1.001,1.002 0,0.553 -0.448,1 -1.001,1"
             style="fill:#f57365;fill-opacity:1;fill-rule:nonzero;stroke:none"
             id="path58"
             inkscape:connector-curvature="0" /></g><g
           id="g60"
           transform="translate(37,54.002)"><path
             d="m 0,0 c -0.553,0 -1.001,-0.447 -1.001,-1 0,-0.553 0.448,-1.002 1.001,-1.002 0.553,0 1.001,0.449 1.001,1.002 0,0.553 -0.448,1 -1.001,1"
             style="fill:#f57365;fill-opacity:1;fill-rule:nonzero;stroke:none"
             id="path62"
             inkscape:connector-curvature="0" /></g></g></g></g></svg>