<?xml version="1.0" encoding="UTF-8" standalone="no"?>
<!-- Created with Inkscape (http://www.inkscape.org/) -->

<svg
   xmlns:dc="http://purl.org/dc/elements/1.1/"
   xmlns:cc="http://creativecommons.org/ns#"
   xmlns:rdf="http://www.w3.org/1999/02/22-rdf-syntax-ns#"
   xmlns:svg="http://www.w3.org/2000/svg"
   xmlns="http://www.w3.org/2000/svg"
   xmlns:sodipodi="http://sodipodi.sourceforge.net/DTD/sodipodi-0.dtd"
   xmlns:inkscape="http://www.inkscape.org/namespaces/inkscape"
   version="1.1"
   id="svg2"
   xml:space="preserve"
   width="80"
   height="80"
   viewBox="0 0 80 80"
   sodipodi:docname="sheff-logo.svg"
   inkscape:version="0.92.1 r15371"><metadata
     id="metadata8"><rdf:RDF><cc:Work
         rdf:about=""><dc:format>image/svg+xml</dc:format><dc:type
           rdf:resource="http://purl.org/dc/dcmitype/StillImage" /><dc:title></dc:title></cc:Work></rdf:RDF></metadata><defs
     id="defs6"><clipPath
       clipPathUnits="userSpaceOnUse"
       id="clipPath18"><path
         d="M 0,60 H 60 V 0 H 0 Z"
         id="path16"
         inkscape:connector-curvature="0" /></clipPath></defs><sodipodi:namedview
     pagecolor="#ffffff"
     bordercolor="#666666"
     borderopacity="1"
     objecttolerance="10"
     gridtolerance="10"
     guidetolerance="10"
     inkscape:pageopacity="0"
     inkscape:pageshadow="2"
     inkscape:window-width="640"
     inkscape:window-height="480"
     id="namedview4"
     showgrid="false"
     inkscape:zoom="2.95"
     inkscape:cx="40"
     inkscape:cy="40"
     inkscape:window-x="0"
     inkscape:window-y="0"
     inkscape:window-maximized="0"
     inkscape:current-layer="g10" /><g
     id="g10"
     inkscape:groupmode="layer"
     inkscape:label="Vector Smart Object2"
     transform="matrix(1.3333333,0,0,-1.3333333,0,80)"><g
       id="g12"><g
         id="g14"
         clip-path="url(#clipPath18)"><g
           id="g20"
           transform="translate(22.5244,16.1318)"><path
             d="m 0,0 -14.979,-3.784 c -3.937,-1.476 -6.545,-7.143 -6.545,-11.348 h 58 c 0,4.205 -2.609,9.872 -6.546,11.348 L 14.951,0"
             style="fill:none;stroke:#f57365;stroke-width:2;stroke-linecap:round;stroke-linejoin:miter;stroke-miterlimit:10;stroke-dasharray:none;stroke-opacity:1"
             id="path22"
             inkscape:connector-curvature="0" /></g><g
           id="g24"
           transform="translate(31,1)"><path
             d="M 0,0 V 11.472"
             style="fill:none;stroke:#f57365;stroke-width:2;stroke-linecap:round;stroke-linejoin:round;stroke-miterlimit:10;stroke-dasharray:none;stroke-opacity:1"
             id="path26"
             inkscape:connector-curvature="0" /></g><g
           id="g28"
           transform="translate(16,34)"><path
             d="m 0,0 c -2.522,0 -1.134,-9.043 2.357,-9.043 0,-7.566 8.151,-12.609 11.643,-12.609"
             style="fill:none;stroke:#f57365;stroke-width:2;stroke-linecap:round;stroke-linejoin:miter;stroke-miterlimit:10;stroke-dasharray:none;stroke-opacity:1"
             id="path30"
             inkscape:connector-curvature="0" /></g><g
           id="g32"
           transform="translate(44,34)"><path
             d="m 0,0 c 1.261,0 1.133,-9.043 -2.358,-9.043 0,-7.566 -8.15,-12.609 -11.642,-12.609"
             style="fill:none;stroke:#f57365;stroke-width:2;stroke-linecap:round;stroke-linejoin:miter;stroke-miterlimit:10;stroke-dasharray:none;stroke-opacity:1"
             id="path34"
             inkscape:connector-curvature="0" /></g><g
           id="g36"
           transform="translate(14.8696,43.5664)"><path
             d="m 0,0 1.13,-9.566 c 0,0 3.913,3 14,3 10.087,0 14,-3 14,-3 L 30.261,0"
             style="fill:none;stroke:#f57365;stroke-width:2;stroke-linecap:round;stroke-linejoin:miter;stroke-miterlimit:10;stroke-dasharray:none;stroke-opacity:1"
             id="path38"
             inkscape:connector-curvature="0" /></g><g
           id="g40"
           transform="translate(21.1738,50.1738)"><path
             d="m 0,0 c 0,0.878 0.133,1.724 0.371,2.523 -0.97,0.776 -2.183,1.26 -3.523,1.26 -3.134,0 -5.674,-2.54 -5.674,-5.674 0,-1.966 1.002,-3.698 2.522,-4.716"
             style="fill:none;stroke:#f57365;stroke-width:2;stroke-linecap:round;stroke-linejoin:miter;stroke-miterlimit:10;stroke-dasharray:none;stroke-opacity:1"
             id="path42"
             inkscape:connector-curvature="0" /></g><g
           id="g44"
           transform="translate(45.1304,43.5664)"><path
             d="m 0,0 c 1.52,1.019 2.522,2.75 2.522,4.716 0,3.134 -2.54,5.674 -5.674,5.674 -1.34,0 -2.555,-0.483 -3.524,-1.259 0.238,-0.799 0.372,-1.646 0.372,-2.524"
             style="fill:none;stroke:#f57365;stroke-width:2;stroke-linecap:round;stroke-linejoin:miter;stroke-miterlimit:10;stroke-dasharray:none;stroke-opacity:1"
             id="path46"
             inkscape:connector-curvature="0" /></g><g
           id="g48"
           transform="translate(38.4541,52.6973)"><path
             d="M 0,0 C -1.086,3.645 -4.457,6.303 -8.454,6.303 -12.451,6.303 -15.822,3.645 -16.91,0"
             style="fill:none;stroke:#f57365;stroke-width:2;stroke-linecap:round;stroke-linejoin:miter;stroke-miterlimit:10;stroke-dasharray:none;stroke-opacity:1"
             id="path50"
             inkscape:connector-curvature="0" /></g><g
           id="g52"
           transform="translate(21.5444,52.6973)"><path
             d="M 0,0 C -0.238,-0.799 -0.371,-1.646 -0.371,-2.523"
             style="fill:none;stroke:#f57365;stroke-width:2;stroke-linecap:round;stroke-linejoin:miter;stroke-miterlimit:10;stroke-dasharray:none;stroke-opacity:1"
             id="path54"
             inkscape:connector-curvature="0" /></g><g
           id="g56"
           transform="translate(38.8262,50.1738)"><path
             d="M 0,0 C 0,0.878 -0.134,1.724 -0.372,2.523"
             style="fill:none;stroke:#f57365;stroke-width:2;stroke-linecap:round;stroke-linejoin:miter;stroke-miterlimit:10;stroke-dasharray:none;stroke-opacity:1"
             id="path58"
             inkscape:connector-curvature="0" /></g><g
           id="g60"
           transform="translate(22.4346,30)"><path
             d="M 0,0 C 0,1.393 1.13,1.261 2.521,1.261 3.915,1.261 5.044,1.393 5.044,0"
             style="fill:none;stroke:#f57365;stroke-width:2;stroke-linecap:round;stroke-linejoin:miter;stroke-miterlimit:10;stroke-dasharray:none;stroke-opacity:1"
             id="path62"
             inkscape:connector-curvature="0" /></g><g
           id="g64"
           transform="translate(32.5215,30)"><path
             d="M 0,0 C 0,1.393 1.129,1.261 2.522,1.261 3.915,1.261 5.044,1.393 5.044,0"
             style="fill:none;stroke:#f57365;stroke-width:2;stroke-linecap:round;stroke-linejoin:miter;stroke-miterlimit:10;stroke-dasharray:none;stroke-opacity:1"
             id="path66"
             inkscape:connector-curvature="0" /></g><g
           id="g68"
           transform="translate(26.2168,24.9565)"><path
             d="M 0,0 C -2.089,0 -3.782,-2.258 -3.782,-5.043 H 3.783 C 3.783,-2.258 2.09,0 0,0 m 0,-2 c 0.465,0 0.959,-0.396 1.31,-1.043 H -1.309 C -0.958,-2.396 -0.464,-2 0,-2"
             style="fill:#f57365;fill-opacity:1;fill-rule:nonzero;stroke:none"
             id="path70"
             inkscape:connector-curvature="0" /></g><g
           id="g72"
           transform="translate(33.7827,24.9565)"><path
             d="M 0,0 C -2.089,0 -3.783,-2.258 -3.783,-5.043 H 3.783 C 3.783,-2.258 2.089,0 0,0 m 0,-2 c 0.464,0 0.958,-0.396 1.309,-1.043 H -1.309 C -0.958,-2.396 -0.464,-2 0,-2"
             style="fill:#f57365;fill-opacity:1;fill-rule:nonzero;stroke:none"
             id="path74"
             inkscape:connector-curvature="0" /></g></g></g></g></svg>